<?xml version="1.0" encoding="UTF-8" standalone="no"?>
<svg
   xmlns:dc="http://purl.org/dc/elements/1.1/"
   xmlns:cc="http://creativecommons.org/ns#"
   xmlns:rdf="http://www.w3.org/1999/02/22-rdf-syntax-ns#"
   xmlns:svg="http://www.w3.org/2000/svg"
   xmlns="http://www.w3.org/2000/svg"
   viewBox="0 0 32 32"
   height="32"
   width="32"
   xml:space="preserve"
   id="svg2"
   version="1.1"><metadata
     id="metadata8"><rdf:RDF><cc:Work
         rdf:about=""><dc:format>image/svg+xml</dc:format><dc:type
           rdf:resource="http://purl.org/dc/dcmitype/StillImage" /></cc:Work></rdf:RDF></metadata><defs
     id="defs6"><clipPath
       id="clipPath20"
       clipPathUnits="userSpaceOnUse"><path
         style="clip-rule:evenodd"
         id="path18"
         d="m 22.3359,106.371 -0.6757,-0.91 C 17.3398,98.9766 21.9258,89.9688 30.0195,89.9688 H 108.68 L 100.098,21.207 c -1.2386,-9.9062 11.211,-15.31247 17.605,-7.6406 l 100,119.9996 0.676,0.907 c 4.32,6.484 -0.266,15.496 -8.359,15.496 h -78.672 l 8.593,68.758 c 1.239,9.91 -11.211,15.312 -17.605,7.644 z m 93.5231,80.988 -5.761,-46.152 -0.078,-1.184 c -0.043,-5.464 4.386,-10.054 10,-10.054 h 68.64 l -64.492,-77.3831 5.773,46.1407 0.079,1.1836 c 0.043,5.4648 -4.387,10.0588 -10,10.0588 H 51.3672 Z" /></clipPath><clipPath
       id="clipPath26"
       clipPathUnits="userSpaceOnUse"><path
         id="path24"
         d="M 0,0 H 240 V 240 H 0 Z" /></clipPath></defs><g
     transform="matrix(1.3333333,0,0,-1.3333333,0,32)"
     id="g10"><g
       transform="scale(0.1)"
       id="g12"><g
         id="g14"><g
           clip-path="url(#clipPath20)"
           id="g16"><g
             clip-path="url(#clipPath26)"
             id="g22"><path
               id="path28"
               style="fill:#173051;fill-opacity:1;fill-rule:nonzero;stroke:none"
               d="M 0,0 H 270.039 V 280 H 0 Z" /></g></g></g></g></g></svg>